<svg id="Layer_1" data-name="Layer 1" xmlns="http://www.w3.org/2000/svg" viewBox="0 0 261.53 261.32"><defs><style>.cls-1{fill:#8e3714;}.cls-2,.cls-3,.cls-4{fill:none;}.cls-2,.cls-3,.cls-4,.cls-5{stroke:#fff;}.cls-2,.cls-4,.cls-5{stroke-miterlimit:10;}.cls-3{stroke-linejoin:round;}.cls-4{stroke-width:2px;}.cls-5,.cls-6{fill:#fff;}.cls-6{font-size:11.98px;font-family:Manrope-Bold, Manrope;font-weight:700;}</style></defs><title>Logi-C</title><circle id="Outer" class="cls-1" cx="130.86" cy="130.66" r="130.66"/><path class="cls-2" d="M37.54,198.18s-41-65.82,12.15-128.52" transform="translate(-3.47 -12.23)"/><path class="cls-2" d="M49.54,109.88c-19.68,8.64-26.94,27.74-26.94,27.74" transform="translate(-3.47 -12.23)"/><path class="cls-2" d="M22.45,142.2S21,135.06,9.34,123.69" transform="translate(-3.47 -12.23)"/><path class="cls-2" d="M26.89,173.33s-2-11.13,9.46-17.94" transform="translate(-3.47 -12.23)"/><path class="cls-2" d="M32.18,149.8s.21,7.69-1.66,10.64" transform="translate(-3.47 -12.23)"/><path class="cls-2" d="M49.46,69.93a14.43,14.43,0,0,1-.54-3.7c0-1.87.35-13.57-.45-16.72s9.72-2.87,13.65,3.56c1.35,2.2.14,2.39-.55,4-1.34,3-5.21,5.39-5.21,5.39Z" transform="translate(-3.47 -12.23)"/><path class="cls-2" d="M66.24,68.76a1.29,1.29,0,0,1,1.42.14c.66.54,1.62,1.31,1.89,1.49.42.29.35.81-1.12,2.31s-4,4.9-6.77,4.21a18.58,18.58,0,0,0-5.46-.77,9.52,9.52,0,0,1-6-3.87c-.27-.42-1.13-1.7-.93-2.08s1.54.06,2.08.09c1.62.07,3.85.16,5.43.2,2.77.07,5,.58,7.65-.77Z" transform="translate(-3.47 -12.23)"/><path class="cls-2" d="M49.24,70.19s3.11-3.21,9-9.12c2.3-2.33,3.3-4,5.2-4.4,2.9-.61,6.2,1.43,7.22,1.42a.79.79,0,0,1,.79.79c0,2.06-.45,7.75-4.42,9.48-4.89,2.13-3.13,2-8.62,2.2A60,60,0,0,1,49.24,70.19Z" transform="translate(-3.47 -12.23)"/><path class="cls-2" d="M46.26,45.83a18.43,18.43,0,0,1,2.21,3.68c.27,2,.63,20.18.63,20.18A50,50,0,0,1,42,61.44a55.49,55.49,0,0,0-5.29-6" transform="translate(-3.47 -12.23)"/><path class="cls-3" d="M27.45,66.91c.84.61,5.49.53,7.6-.15s2.78,2,5.83,3.31S48,70.4,48,70.4l1.27-.21A38.62,38.62,0,0,1,43.12,63a42.87,42.87,0,0,0-6.78-7.26" transform="translate(-3.47 -12.23)"/><path class="cls-2" d="M49.1,109.88s-.21,4.22,2.38,6.9,3.66,6,4.27,6.74,4.15,3,6.71,1.35c2-1.33,1.73-5.27,1.53-6.82a1.14,1.14,0,0,0-.68-.89l-6.94-3.08Z" transform="translate(-3.47 -12.23)"/><path class="cls-2" d="M49.32,110a.08.08,0,0,0-.06.14c2.23,1.37,14.39,8.7,17,6.44,2.87-2.48.33-4,.6-6.9s0-9.28-3.8-8.49a.68.68,0,0,0-.46.4c-.42,1-.3,2.33-1.15,3.76-.43.71-2.28,4-4.78,5S51.2,110.37,49.32,110Z" transform="translate(-3.47 -12.23)"/><path class="cls-2" d="M16.55,85.16c4.9,2.46,5.75,1.17,9.82,7.77,1.28,2.07,2.87,7.59,3.32,9.26a.09.09,0,0,0,.18,0c.19-2.23.78-11.31-2.18-15.28,0,0-3.79-5-8.22-7.33" transform="translate(-3.47 -12.23)"/><path class="cls-2" d="M37.23,117.93s-.71,9.59,1.42,13c1.27,2,4.09,2.65,5.44,7.42a.15.15,0,0,0,.3,0c.06-3.53,0-14.11-2.7-17.17C38.44,117.43,37.23,117.93,37.23,117.93Z" transform="translate(-3.47 -12.23)"/><path class="cls-2" d="M20,118c-.61,1.09-4.77,9-2,15.71,0,0,4-5.64,2.09-15.69A.06.06,0,0,0,20,118Z" transform="translate(-3.47 -12.23)"/><path class="cls-2" d="M17.91,133.77a12.91,12.91,0,0,0-11.73,7.08.12.12,0,0,0,.14.16A25.35,25.35,0,0,1,12,139.73c2.38-.14,5.59-5.26,6-5.89A0,0,0,0,0,17.91,133.77Z" transform="translate(-3.47 -12.23)"/><path class="cls-2" d="M42.54,150c-1,.11-5.59.87-6.38,5.54,0,0,4.28,2.89,6.51-5.38A.13.13,0,0,0,42.54,150Z" transform="translate(-3.47 -12.23)"/><path class="cls-2" d="M32.18,150s3.07-4.07.18-7.3a.1.1,0,0,0-.15,0C31.71,143.3,29,146.67,32.18,150Z" transform="translate(-3.47 -12.23)"/><path class="cls-2" d="M55.1,153.21a.2.2,0,0,1,.34.19c-1,2.93-4.3,12.34-8,16-4.39,4.37-7.93,3.16-11.64,9-1.31,2.05-2.87,7.59-3.32,9.26a.09.09,0,0,1-.18,0c-.19-2.22-.78-11.3,2.18-15.27,3.39-4.54,9.26-7.44,11.37-9.37C47.6,161.38,53.21,155.27,55.1,153.21Z" transform="translate(-3.47 -12.23)"/><path class="cls-2" d="M37.42,198s-3.41-9.49-15.28-9.71" transform="translate(-3.47 -12.23)"/><path class="cls-2" d="M23.05,182.08s3.24,6.06,6,7.52" transform="translate(-3.47 -12.23)"/><path class="cls-2" d="M15.05,186.53c.8-.35,4.72-1.81,7.4,1.47,0,0-2,4.13-7.43-1.29A.11.11,0,0,1,15.05,186.53Z" transform="translate(-3.47 -12.23)"/><path class="cls-2" d="M23.31,182.49s-4.18-1.8-3.37-5.58a.09.09,0,0,1,.11-.07C20.69,177.06,24.28,178.47,23.31,182.49Z" transform="translate(-3.47 -12.23)"/><path class="cls-2" d="M29.88,102.26S33.12,93,44.61,92.75" transform="translate(-3.47 -12.23)"/><path class="cls-2" d="M43.84,86.77s-3.11,5.88-5.76,7.31" transform="translate(-3.47 -12.23)"/><path class="cls-2" d="M51.58,91.28C50.8,91,47,89.56,44.42,92.75c0,0,2,4,7.19-1.3A.1.1,0,0,0,51.58,91.28Z" transform="translate(-3.47 -12.23)"/><path class="cls-2" d="M43.74,87s4-1.77,3.23-5.43a.09.09,0,0,0-.12-.06C46.24,81.67,42.77,83.07,43.74,87Z" transform="translate(-3.47 -12.23)"/><path class="cls-2" d="M35.19,90.75S36.64,84,29.81,79.57" transform="translate(-3.47 -12.23)"/><path class="cls-2" d="M32.56,76.31s-.3,4.7.78,6.55" transform="translate(-3.47 -12.23)"/><path class="cls-2" d="M26.3,76a4.25,4.25,0,0,1,3.77,3.53s-2.68,1.67-3.85-3.44A.07.07,0,0,1,26.3,76Z" transform="translate(-3.47 -12.23)"/><path class="cls-2" d="M32.57,76.64s-1.78-2.56,0-4.47a.08.08,0,0,1,.1,0A3.19,3.19,0,0,1,32.57,76.64Z" transform="translate(-3.47 -12.23)"/><path class="cls-2" d="M47.72,99.51a.13.13,0,0,1,.16.2c-1.29,1.52-5.54,6.38-8.64,7.69-3.68,1.57-5.52,0-9.15,2.61a30.91,30.91,0,0,0-4.21,4.77.06.06,0,0,1-.1-.06c.41-1.38,2.24-7,5-8.65,3.12-1.92,7.35-2.25,9.08-2.91C41.26,102.62,46.09,100.29,47.72,99.51Z" transform="translate(-3.47 -12.23)"/><path class="cls-2" d="M55,93.57a.32.32,0,0,0-.55-.11C53.31,94.86,49.33,100,49.2,104c-.15,4.78-.29,5.85-.29,5.85s3.82-1.39,4.53-5.17c.51-2.68,1.16-3.39,1.5-3.58a.49.49,0,0,0,.25-.37C55.31,99.59,55.68,95.4,55,93.57Z" transform="translate(-3.47 -12.23)"/><path class="cls-2" d="M9.76,123.36a.45.45,0,0,0,.78.3c1.21-1.22,3.6-3.76,3.55-4.76-.06-1.32-.34-7.37,1.77-9.66s-1.94-2.08-2.61-2.85-3-.09-2.94.73S9.65,119.74,9.76,123.36Z" transform="translate(-3.47 -12.23)"/><path class="cls-2" d="M2,102.33" transform="translate(-3.47 -12.23)"/><path class="cls-2" d="M9.1,103.85c1.88.55,1.21,2.1,1.21,3.35,0,1.09-.53,13-.67,16.09a.24.24,0,0,1-.44.12,33.18,33.18,0,0,1-2.12-3.88c-.71-1.56,0-2.29-1.3-2.62" transform="translate(-3.47 -12.23)"/><path class="cls-2" d="M5.89,116.37c3.37.65,3.64,4.81,3.64,6.7a.71.71,0,0,1-.87.7c-.79-.19-2.12-.47-4-.75" transform="translate(-3.47 -12.23)"/><path class="cls-2" d="M4.89,123c2,.45,4.11,1,4.65,1,0,0,0,0,0,0-.43.15-3.29,1.2-5.13.94" transform="translate(-3.47 -12.23)"/><path class="cls-2" d="M9.77,124.22a0,0,0,0,1,0,.06c-.49.32-2.67,3.27-5.64,2.89" transform="translate(-3.47 -12.23)"/><path class="cls-2" d="M3.73,131.18c4.58.42,5.59-5.77,6.12-6.76a.05.05,0,0,0-.08-.07L4.7,127.2" transform="translate(-3.47 -12.23)"/><path class="cls-2" d="M49.23,109.78a.09.09,0,0,0,0,.16c1,.43,7.28,2.73,10.78-2.26,3.67-5.23,1-5.42,3-9.57a.34.34,0,0,0-.35-.48c-1.47.21-5.18.9-7.09,2.8-2.41,2.41-2.06,5.13-2.79,6.18A12.12,12.12,0,0,1,49.23,109.78Z" transform="translate(-3.47 -12.23)"/><path class="cls-2" d="M8.58,159.63c15.48,6.79,21.18,21.81,21.18,21.81" transform="translate(-3.47 -12.23)"/><path class="cls-2" d="M4.42,160.39l4.51-.76a8.15,8.15,0,0,1-1.87,5.43,4.11,4.11,0,0,1-1.7,1.25" transform="translate(-3.47 -12.23)"/><path class="cls-2" d="M18.26,166s.56,7.55-1.12,10.21c-1,1.59-3.21,2.09-4.28,5.83a.12.12,0,0,1-.23,0c-.05-2.78,0-11.1,2.12-13.5C17.3,165.56,18.26,166,18.26,166Z" transform="translate(-3.47 -12.23)"/><path class="cls-2" d="M4.27,146.8a.25.25,0,0,1,.43-.08c.92,1.1,4,5.1,4.15,8.32.12,3.76.23,4.59.23,4.59a5.87,5.87,0,0,1-3.57-4.06c-.4-2.11-.91-2.66-1.17-2.81a.38.38,0,0,1-.2-.3C4,151.54,3.75,148.24,4.27,146.8Z" transform="translate(-3.47 -12.23)"/><path class="cls-2" d="M3.82,152.2c2.68,0,1.62,4,2.2,4.86a9.62,9.62,0,0,0,2.81,2.49.08.08,0,0,1,0,.13,39.05,39.05,0,0,1-4.39.71" transform="translate(-3.47 -12.23)"/><path class="cls-2" d="M49.1,70.19s1.22,5.46,5.8,6,1.72.1,5,.85a7.19,7.19,0,0,0,5.7-1.44c.49-.31.89-1,1-.68.42,1.12-.19,1.9-.8,4-.87,2.93.08,2.88-.66,4S56.13,87.64,51.89,80,49.1,70.19,49.1,70.19Z" transform="translate(-3.47 -12.23)"/><line class="cls-4" x1="115.63" y1="131.07" x2="192.62" y2="77.72"/><line class="cls-4" x1="73.81" y1="172.79" x2="149.06" y2="120.66"/><path id="Bottom-S" class="cls-5" d="M148.37,157.46c.16,0,15,6.57,19.2,16.81,3,8.16-1.12,24.17-13.92,28.81a54.44,54.44,0,0,1-15.85,2.4c-17.44,0-33.45-8-41.77-20.33v-4.32H94.27v12.8H96v-5c9.6,12,25.13,18.57,41.77,18.57,22.57,0,48.82-15.05,50.1-39.37,0-17.29-16.17-26.57-29.77-33-1.64-.83-3.53-1.68-5.57-2.54l-24,16.74Z" transform="translate(-3.47 -12.23)"/><g id="Top-S"><path class="cls-5" d="M123.5,118.57c-.16,0-15-6.56-19.2-16.81-3-8.16,1.12-24.16,13.92-28.8a54.12,54.12,0,0,1,15.85-2.41c17.44,0,33.45,8,41.77,20.33V95.2h1.76V82.4h-1.76v5c-9.6-12-25.13-18.57-41.77-18.57-22.57,0-48.82,15-50.1,39.38,0,17.28,16.17,26.57,29.77,33,1.64.83,3.53,1.67,5.57,2.53l24-16.74Z" transform="translate(-3.47 -12.23)"/></g><text class="cls-6" transform="matrix(0.85, 0.52, -0.52, 0.85, 66.72, 226.7)">S</text><text class="cls-6" transform="translate(75.92 232.21) rotate(26.34)">Y</text><text class="cls-6" transform="matrix(0.93, 0.36, -0.36, 0.93, 85.7, 236.91)">R</text><text class="cls-6" transform="translate(96.29 240.78) rotate(15.24)">R</text><text class="cls-6" transform="matrix(0.99, 0.17, -0.17, 0.99, 107.19, 243.59)">E</text><text class="cls-6" transform="matrix(1, 0.08, -0.08, 1, 117.6, 245.24)">L</text><text class="cls-6" transform="translate(126.35 245.87) rotate(1.57)"> </text><text class="cls-6" transform="translate(131.62 246.04) rotate(-2.66)">C</text><text class="cls-6" transform="matrix(0.99, -0.15, 0.15, 0.99, 143.88, 245.3)">A</text><text class="cls-6" transform="translate(154.9 243.53) rotate(-13.92)">B</text><text class="cls-6" transform="matrix(0.95, -0.31, 0.31, 0.95, 165.41, 240.73)">I</text><text class="cls-6" transform="matrix(0.93, -0.38, 0.38, 0.93, 171.3, 238.76)">L</text><text class="cls-6" transform="translate(180.02 235.06) rotate(-25.97)">I</text><text class="cls-6" transform="matrix(0.86, -0.51, 0.51, 0.86, 185.68, 232.3)">N</text><text class="cls-6" transform="translate(196.35 225.82) rotate(-36.78)">G</text><path id="Outer-Circle" class="cls-2" d="M67.44,231.88a112,112,0,1,1,143.17-7.34" transform="translate(-3.47 -12.23)"/><path class="cls-2" d="M5,113" transform="translate(-3.47 -12.23)"/></svg>