<svg id="Layer_1" data-name="Layer 1" xmlns="http://www.w3.org/2000/svg" viewBox="0 0 818.44 709.86">
  <defs>
    <style>
      .cls-1, .cls-2, .cls-3, .cls-4, .cls-5 {
        fill: none;
        stroke: #000;
      }

      .cls-1, .cls-2, .cls-3, .cls-5 {
        stroke-miterlimit: 10;
      }

      .cls-1 {
        stroke-width: 4.04px;
      }

      .cls-2 {
        stroke-width: 4.03px;
      }

      .cls-3, .cls-4 {
        stroke-width: 2.86px;
      }

      .cls-4 {
        stroke-linejoin: round;
      }

      .cls-5 {
        stroke-width: 4.02px;
      }
    </style>
  </defs>
  <title>LOGO</title>
  <line class="cls-1" x1="413.07" y1="354.7" x2="655.14" y2="186.98"/>
  <line class="cls-2" x1="284.09" y1="488.63" x2="520.65" y2="324.71"/>
  <path id="Bottom-S" d="M614,610.92c.5,0,47.3,20.63,60.38,52.83,9.56,25.66-3.52,76-43.78,90.57a171,171,0,0,1-49.81,7.55c-54.85,0-105.16-25.16-131.33-63.91V684.38h-5.53v40.25h5.53V709c30.19,37.74,79,58.37,131.33,58.37,71,0,153.47-47.3,157.5-123.78,0-54.34-50.82-83.53-93.6-103.66-5.16-2.61-11.09-5.26-17.51-8l-75.29,53.37Z" transform="translate(-107.57 -210.38)"/>
  <g id="Top-S">
    <path d="M535.8,488.63c-.51,0-47.31-20.63-60.38-52.83-9.56-25.66,3.51-76,43.77-90.57A171.09,171.09,0,0,1,569,337.68c54.84,0,105.16,25.16,131.33,63.91v13.58h5.53V374.92h-5.53v15.6c-30.19-37.74-79-58.37-131.33-58.37-70.95,0-153.48,47.3-157.5,123.78,0,54.34,50.82,83.53,93.59,103.65,5.17,2.62,11.1,5.27,17.51,8l75.51-54.62Z" transform="translate(-107.57 -210.38)"/>
  </g>
  <path class="cls-3" d="M264.13,739.6S136.63,532,303.74,334.88" transform="translate(-107.57 -210.38)"/>
  <path class="cls-3" d="M303.27,461.31c-61.9,27.18-84.72,87.21-84.72,87.21" transform="translate(-107.57 -210.38)"/>
  <path class="cls-3" d="M218.09,562.92s-4.63-22.45-41.21-58.18" transform="translate(-107.57 -210.38)"/>
  <path class="cls-3" d="M232.05,660.79s-6.15-35,29.73-56.39" transform="translate(-107.57 -210.38)"/>
  <path class="cls-3" d="M248.67,586.82s.66,24.18-5.21,33.45" transform="translate(-107.57 -210.38)"/>
  <path class="cls-3" d="M303,335.73a44.82,44.82,0,0,1-1.69-11.65c0-5.87,1.09-42.67-1.43-52.55s30.55-9,42.92,11.17c4.23,6.91.44,7.53-1.74,12.45-4.19,9.48-16.37,17-16.37,17Z" transform="translate(-107.57 -210.38)"/>
  <path class="cls-3" d="M355.77,332a4.07,4.07,0,0,1,4.44.45c2.09,1.69,5.11,4.13,6,4.7,1.33.91,1.08,2.53-3.52,7.25s-12.49,15.39-21.28,13.23-15.59-2.82-17.18-2.42c-1.31.33-12.93-3.09-18.95-12.17-.87-1.31-3.55-5.33-2.91-6.54s4.82.21,6.54.29c5.08.21,12.09.49,17.07.63,8.7.24,15.86,1.84,24-2.41Z" transform="translate(-107.57 -210.38)"/>
  <path class="cls-3" d="M302.33,336.52s9.76-10.08,28.19-28.67c7.24-7.3,10.37-12.58,16.34-13.82,9.14-1.91,19.5,4.5,22.69,4.46A2.44,2.44,0,0,1,372,301c-.06,6.49-1.4,24.38-13.88,29.82-15.36,6.68-9.83,6.43-27.09,6.9A186.43,186.43,0,0,1,302.33,336.52Z" transform="translate(-107.57 -210.38)"/>
  <path class="cls-3" d="M301.89,335A156.59,156.59,0,0,1,279.49,309c-10.12-15-24.22-14.32-24.1-34.21s28.79-11,31.68-10.9,12,1.42,12.82,7.6S301.89,335,301.89,335Z" transform="translate(-107.57 -210.38)"/>
  <path class="cls-4" d="M298.33,337.21s-12.68,3-22.29-1-11.69-12.56-18.33-10.42-20.76,8.32-23.46.84c-2.42-6.68-.14-24.88,14.3-34.91a14.59,14.59,0,0,1,11-2.21h0a111.79,111.79,0,0,1,23.54,24.6c10.7,15.37,19.27,22.45,19.27,22.45Z" transform="translate(-107.57 -210.38)"/>
  <path class="cls-3" d="M301.87,461.31s-.66,13.26,7.48,21.71,11.51,18.92,13.42,21.17,13.05,9.48,21.1,4.25c6.4-4.18,5.46-16.57,4.8-21.45a3.57,3.57,0,0,0-2.11-2.8l-21.84-9.67Z" transform="translate(-107.57 -210.38)"/>
  <path class="cls-3" d="M302.57,461.59a.24.24,0,0,0-.19.43c7,4.33,45.25,27.36,53.42,20.28,9-7.81,1-12.66,1.87-21.71.82-8.81.07-29.17-11.94-26.68a2.09,2.09,0,0,0-1.44,1.24c-1.33,3.06-1,7.33-3.63,11.83-1.33,2.24-7.15,12.55-15,15.77C318,465.89,308.49,462.84,302.57,461.59Z" transform="translate(-107.57 -210.38)"/>
  <path class="cls-3" d="M169.75,328.89a.63.63,0,0,0-1.06.62c3.06,9.2,13.52,38.77,25.12,50.3,13.81,13.72,24.95,9.94,36.61,28.23,4.11,6.44,9,23.86,10.43,29.11a.29.29,0,0,0,.56,0c.61-7,2.45-35.54-6.85-48-10.65-14.27-29.13-23.39-35.75-29.47C193.33,354.59,175.69,335.38,169.75,328.89Z" transform="translate(-107.57 -210.38)"/>
  <path class="cls-3" d="M264.55,486.61s-2.22,30.17,4.48,40.83c4,6.34,12.85,8.33,17.1,23.31a.48.48,0,0,0,.95-.11c.18-11.12,0-44.36-8.49-54C268.38,485,264.55,486.61,264.55,486.61Z" transform="translate(-107.57 -210.38)"/>
  <path class="cls-3" d="M210.35,486.72c-1.91,3.41-15,28.12-6.25,49.37,0,0,12.49-17.7,6.56-49.3A.17.17,0,0,0,210.35,486.72Z" transform="translate(-107.57 -210.38)"/>
  <path class="cls-3" d="M203.82,536.43c-2.54-.1-25.13-.39-36.88,22.24a.36.36,0,0,0,.43.51c2.68-.9,11.28-3.65,17.77-4,7.47-.43,17.58-16.53,18.79-18.51A.14.14,0,0,0,203.82,536.43Z" transform="translate(-107.57 -210.38)"/>
  <path class="cls-3" d="M281.24,587.31c-3.05.35-17.56,2.73-20,17.44,0,0,13.44,9.08,20.45-16.93A.4.4,0,0,0,281.24,587.31Z" transform="translate(-107.57 -210.38)"/>
  <path class="cls-3" d="M248.68,587.57s9.64-12.8.57-22.93a.32.32,0,0,0-.48,0C247.21,566.4,238.71,577,248.68,587.57Z" transform="translate(-107.57 -210.38)"/>
  <path class="cls-3" d="M319.55,597.53a.63.63,0,0,1,1.07.61c-3.07,9.2-13.53,38.78-25.13,50.3-13.81,13.73-24.95,9.94-36.61,28.23-4.11,6.45-9,23.86-10.43,29.11a.29.29,0,0,1-.56,0c-.61-7-2.45-35.55,6.85-48,10.65-14.27,29.13-23.39,35.75-29.47C296,623.22,313.61,604,319.55,597.53Z" transform="translate(-107.57 -210.38)"/>
  <path class="cls-3" d="M265.15,741.38s-10.73-33-48-33.72" transform="translate(-107.57 -210.38)"/>
  <path class="cls-3" d="M220,688.9s10.2,19,18.85,23.63" transform="translate(-107.57 -210.38)"/>
  <path class="cls-3" d="M194.83,702.28c2.52-1.08,14.82-5.66,23.26,4.64,0,0-6.4,13-23.36-4.06A.36.36,0,0,1,194.83,702.28Z" transform="translate(-107.57 -210.38)"/>
  <path class="cls-3" d="M220.79,690.16s-13.15-5.66-10.6-17.53a.29.29,0,0,1,.37-.22C212.56,673.09,223.83,677.55,220.79,690.16Z" transform="translate(-107.57 -210.38)"/>
  <path class="cls-3" d="M241.45,437.36s10.19-29,46.31-29.91" transform="translate(-107.57 -210.38)"/>
  <path class="cls-3" d="M285.33,388.65s-9.75,18.5-18.11,23" transform="translate(-107.57 -210.38)"/>
  <path class="cls-3" d="M309.67,402.82c-2.45-1-14.4-5.38-22.5,4.65,0,0,6.29,12.54,22.6-4.09A.35.35,0,0,0,309.67,402.82Z" transform="translate(-107.57 -210.38)"/>
  <path class="cls-3" d="M285,389.22s12.69-5.57,10.15-17.05a.28.28,0,0,0-.36-.21C292.88,372.63,282,377,285,389.22Z" transform="translate(-107.57 -210.38)"/>
  <path class="cls-3" d="M258.15,401.18s4.55-21.27-16.92-35.17" transform="translate(-107.57 -210.38)"/>
  <path class="cls-3" d="M249.89,355.78s-.95,14.78,2.43,20.58" transform="translate(-107.57 -210.38)"/>
  <path class="cls-3" d="M230.2,354.82c1.86.28,10.68,2.06,11.86,11.11,0,0-8.43,5.25-12.13-10.81A.24.24,0,0,1,230.2,354.82Z" transform="translate(-107.57 -210.38)"/>
  <path class="cls-3" d="M249.91,356.81s-5.61-8.05.17-14a.2.2,0,0,1,.29,0C251.29,343.89,256.24,350.57,249.91,356.81Z" transform="translate(-107.57 -210.38)"/>
  <path class="cls-3" d="M297.55,428.7a.41.41,0,0,1,.49.63c-4,4.8-17.42,20.06-27.15,24.2-11.59,4.94-17.38,0-28.77,8.19-4,2.89-11.13,12.18-13.25,15a.18.18,0,0,1-.32-.16c1.31-4.35,7-21.95,15.63-27.21,9.82-6,23.11-7.07,28.54-9.14C277.22,438.49,292.43,431.18,297.55,428.7Z" transform="translate(-107.57 -210.38)"/>
  <path class="cls-3" d="M320.48,410a1,1,0,0,0-1.72-.33c-3.65,4.41-16.15,20.4-16.56,33.25-.48,15.05-.92,18.39-.92,18.39s12-4.35,14.25-16.25c1.61-8.43,3.64-10.66,4.69-11.25a1.54,1.54,0,0,0,.81-1.18C321.41,429,322.56,415.78,320.48,410Z" transform="translate(-107.57 -210.38)"/>
  <path class="cls-3" d="M178.49,506.77s13.53-12.91,13.33-17.08-1.09-23.2,5.54-30.39-6.08-6.55-8.18-9-9.37-.28-9.25,2.3S177.19,503.44,178.49,506.77Z" transform="translate(-107.57 -210.38)"/>
  <path class="cls-3" d="M177.71,505.78a98.71,98.71,0,0,1-7.94-14.12c-2.24-4.9-4.2-12.7-6-18.25-1.14-3.6-2.27-6.32-3.08-9.57-4.08-16.58-13.25-19.53-6.93-26.26S166,441.3,174,442.49s6,6.47,5.94,10.41S177.71,505.78,177.71,505.78Z" transform="translate(-107.57 -210.38)"/>
  <path class="cls-3" d="M177.52,505.7s-10.6.82-18.72-5.18c-2-1.5-3.1-3.92-4.74-6.3-3.08-4.46-6.8-7.05-9.56-9.84a50.54,50.54,0,0,1-11.12-15.6c-1-2.09-2.79-3.1-3.84-4-4.4-3.78-8-.23-6.39-10,2-12.14,17.22-21.69,22.87-16.88l5.64,4.8s10.17,20.54,13,34.29S177.52,505.7,177.52,505.7Z" transform="translate(-107.57 -210.38)"/>
  <path class="cls-3" d="M177.52,505.7a.07.07,0,0,1,0,.14c-1.37.46-5.95.39-11.78.85-3.79.29-8,1.53-12.6.81-12.89-2-18.25.25-20.66-1.67a63.41,63.41,0,0,0-6.16-4.64c-2.46-1.56-5.19-3.33-9.88-3.18-9.85.32-5.08-9.34-4.69-13.42s-.34-10.43,1.44-12.69,7.61-11.5,10.81-10.33,8,3.71,12.6,12.9,15.66,15,19.17,22.65C159,504.1,174.91,505.51,177.52,505.7Z" transform="translate(-107.57 -210.38)"/>
  <path class="cls-3" d="M178.23,506.39a.12.12,0,0,1,.06.21,195.52,195.52,0,0,1-18,9.09c-5.69,2.53-11.58,5.13-16.77,5.59-6,.52-9.81-.85-12.62-1.52-3.8-.91-5.65-1.3-7.93-1.19-1.3.06-2.55-.22-3.69.39-3.43,1.83-6.84,5-9.31-1.34-3.29-8.41,2.39-17.38,7.83-18.94s12.3,5.78,14.7,7.15,13.45,1,17.95,1.58S168.91,505.88,178.23,506.39Z" transform="translate(-107.57 -210.38)"/>
  <path class="cls-3" d="M178.23,506.8a.18.18,0,0,1,.24.24c-1.65,3.11-11.36,20.29-25.49,23.35-15.55,3.37-12.76,2.91-20.66,7.41s-13.8,1.8-14.38-3.46S117.55,520,119.28,519s10.5,0,16.23,2.19,24-5.25,24-5.25Z" transform="translate(-107.57 -210.38)"/>
  <path class="cls-3" d="M302.27,461a.28.28,0,0,0,.06.49c3.23,1.34,22.86,8.6,33.87-7.1,11.53-16.44,3.29-17,9.46-30.1a1.06,1.06,0,0,0-1.09-1.51c-4.63.66-16.29,2.85-22.29,8.82-7.59,7.56-6.47,16.12-8.78,19.43C309.42,456.9,304.11,459.65,302.27,461Z" transform="translate(-107.57 -210.38)"/>
  <path class="cls-3" d="M174.48,617.72c48.66,21.37,65.28,69.45,65.28,69.45" transform="translate(-107.57 -210.38)"/>
  <path class="cls-3" d="M175.58,617.72s.52,10.42-5.88,17.07-9,14.87-10.55,16.64-10.27,7.46-16.59,3.34c-5-3.28-4.29-13-3.78-16.86a2.79,2.79,0,0,1,1.66-2.2l17.17-7.6Z" transform="translate(-107.57 -210.38)"/>
  <path class="cls-3" d="M175,617.94a.19.19,0,0,1,.14.34c-5.51,3.4-35.57,21.51-42,15.94-7.08-6.14-.81-10-1.47-17.07-.65-6.93-.06-22.93,9.39-21a1.64,1.64,0,0,1,1.13,1c1,2.41.74,5.77,2.85,9.3,1,1.76,5.62,9.87,11.8,12.4C162.9,621.32,170.37,618.92,175,617.94Z" transform="translate(-107.57 -210.38)"/>
  <path class="cls-3" d="M204.92,637.61s1.75,23.72-3.53,32.1c-3.13,5-10.09,6.55-13.44,18.32a.38.38,0,0,1-.75-.08c-.13-8.74,0-34.88,6.68-42.44C201.91,636.38,204.92,637.61,204.92,637.61Z" transform="translate(-107.57 -210.38)"/>
  <path class="cls-3" d="M161,577.4a.79.79,0,0,1,1.35-.26c2.87,3.47,12.7,16,13,26.14.37,11.83.72,14.46.72,14.46s-9.43-3.42-11.2-12.77c-1.26-6.63-2.87-8.39-3.69-8.85a1.19,1.19,0,0,1-.63-.93C160.22,592.29,159.31,581.92,161,577.4Z" transform="translate(-107.57 -210.38)"/>
  <path class="cls-3" d="M175.26,617.49a.22.22,0,0,1,0,.38c-2.54,1-18,6.76-26.63-5.58-9.07-12.93-2.59-13.41-7.44-23.67a.83.83,0,0,1,.86-1.18c3.64.51,12.8,2.23,17.52,6.93,6,5.94,5.09,12.67,6.9,15.27C169.64,614.25,173.82,616.42,175.26,617.49Z" transform="translate(-107.57 -210.38)"/>
  <path class="cls-3" d="M301.89,336.52s3.82,17.19,18.22,18.71c14.06,1.48,5.4.33,15.82,2.68,7.79,1.77,13.76-1.81,17.92-4.52,1.52-1,2.8-3.15,3.18-2.15,1.32,3.52-.6,6-2.52,12.47-2.73,9.19.26,9-2.08,12.62s-28.46,15.06-41.78-8.92S301.89,336.52,301.89,336.52Z" transform="translate(-107.57 -210.38)"/>
  <circle class="cls-5" cx="463.51" cy="354.93" r="352.92"/>
</svg>
