<svg id="Layer_1" data-name="Layer 1" xmlns="http://www.w3.org/2000/svg" viewBox="0 0 865.86 248.01">
  <defs>
    <style>
      .cls-1, .cls-2, .cls-3, .cls-4, .cls-5 {
        fill: none;
        stroke: #000;
      }

      .cls-1, .cls-2, .cls-3, .cls-5 {
        stroke-miterlimit: 10;
      }

      .cls-1 {
        stroke-width: 1.41px;
      }

      .cls-2 {
        stroke-width: 1.41px;
      }

      .cls-4 {
        stroke-linejoin: round;
      }

      .cls-5 {
        stroke-width: 1.41px;
      }

      .cls-6 {
        font-size: 53.22px;
        font-family: Manrope-Bold, Manrope;
        font-weight: 700;
        letter-spacing: 0.05em;
      }

      .cls-7 {
        letter-spacing: 0.08em;
      }

      .cls-8 {
        letter-spacing: 0.03em;
      }

      .cls-9 {
        letter-spacing: 0.06em;
      }

      .cls-10 {
        letter-spacing: 0.08em;
      }
    </style>
  </defs>
  <title>LOGO2</title>
  <line class="cls-1" x1="144.32" y1="123.93" x2="228.89" y2="65.33"/>
  <line class="cls-2" x1="99.25" y1="170.72" x2="181.9" y2="113.45"/>
  <path id="Bottom-S" d="M210.42,395.63c.18,0,16.53,7.21,21.1,18.46,3.34,9-1.23,26.54-15.3,31.64a59.65,59.65,0,0,1-17.4,2.64c-19.16,0-36.74-8.79-45.88-22.33V421.3H151v14.06h1.94v-5.45c10.54,13.18,27.6,20.39,45.88,20.39,24.79,0,53.62-16.52,55-43.24,0-19-17.75-29.19-32.69-36.22-1.81-.91-3.88-1.84-6.12-2.79L188.72,386.7Z" transform="translate(-33.5 -255.69)"/>
  <g id="Top-S">
    <path d="M183.11,352.91c-.17,0-16.52-7.21-21.09-18.46-3.34-9,1.23-26.55,15.29-31.65a60,60,0,0,1,17.41-2.63c19.16,0,36.74,8.79,45.88,22.32v4.75h1.93V313.18H240.6v5.45c-10.55-13.19-27.6-20.4-45.88-20.4-24.79,0-53.62,16.53-55,43.25,0,19,17.76,29.18,32.7,36.22,1.8.91,3.88,1.83,6.12,2.78l26.38-19.08Z" transform="translate(-33.5 -255.69)"/>
  </g>
  <path class="cls-3" d="M88.2,440.59S43.65,368.05,102,299.19" transform="translate(-33.5 -255.69)"/>
  <path class="cls-3" d="M101.87,343.36c-21.62,9.5-29.59,30.47-29.59,30.47" transform="translate(-33.5 -255.69)"/>
  <path class="cls-3" d="M72.11,378.86S70.5,371,57.72,358.54" transform="translate(-33.5 -255.69)"/>
  <path class="cls-3" d="M77,413.05s-2.15-12.22,10.39-19.7" transform="translate(-33.5 -255.69)"/>
  <path class="cls-3" d="M82.8,387.21S83,395.66,81,398.9" transform="translate(-33.5 -255.69)"/>
  <path class="cls-3" d="M101.78,299.48a16,16,0,0,1-.59-4.06c0-2.06.38-14.91-.5-18.37s10.68-3.15,15,3.91c1.48,2.41.15,2.63-.61,4.35-1.46,3.31-5.72,5.92-5.72,5.92Z" transform="translate(-33.5 -255.69)"/>
  <path class="cls-3" d="M120.21,298.19a1.43,1.43,0,0,1,1.56.16c.73.59,1.78,1.44,2.08,1.64.46.32.38.88-1.23,2.53s-4.36,5.38-7.44,4.62a20.67,20.67,0,0,0-6-.84,10.43,10.43,0,0,1-6.62-4.25c-.3-.46-1.24-1.86-1-2.29s1.68.08,2.28.1c1.78.08,4.22.18,6,.22,3,.09,5.55.64,8.4-.84Z" transform="translate(-33.5 -255.69)"/>
  <path class="cls-3" d="M101.55,299.76s3.41-3.52,9.84-10c2.53-2.55,3.63-4.39,5.71-4.83,3.2-.66,6.82,1.58,7.93,1.56a.87.87,0,0,1,.87.87c0,2.27-.49,8.52-4.85,10.42-5.37,2.33-3.44,2.25-9.47,2.41A64.52,64.52,0,0,1,101.55,299.76Z" transform="translate(-33.5 -255.69)"/>
  <path class="cls-3" d="M101.39,299.22a54.71,54.71,0,0,1-7.83-9.06c-3.53-5.23-8.46-5-8.42-12s10.07-3.85,11.07-3.81,4.19.5,4.48,2.65S101.39,299.22,101.39,299.22Z" transform="translate(-33.5 -255.69)"/>
  <path class="cls-4" d="M100.15,300s-4.43,1-7.79-.36S88.28,295.25,86,296s-7.25,2.9-8.19.29c-.85-2.33-.05-8.69,5-12.2a5.12,5.12,0,0,1,3.83-.77h0a39.07,39.07,0,0,1,8.22,8.6,41.85,41.85,0,0,0,6.74,7.84Z" transform="translate(-33.5 -255.69)"/>
  <path class="cls-3" d="M101.38,343.36s-.23,4.63,2.62,7.58,4,6.62,4.69,7.4,4.56,3.32,7.37,1.48c2.23-1.45,1.9-5.78,1.68-7.49a1.27,1.27,0,0,0-.74-1L109.37,348Z" transform="translate(-33.5 -255.69)"/>
  <path class="cls-3" d="M101.63,343.46a.08.08,0,0,0-.07.15c2.45,1.51,15.81,9.56,18.67,7.08,3.14-2.73.36-4.42.65-7.58s0-10.19-4.17-9.32a.72.72,0,0,0-.5.43c-.47,1.07-.34,2.56-1.27,4.13-.47.79-2.5,4.39-5.25,5.51S103.7,343.9,101.63,343.46Z" transform="translate(-33.5 -255.69)"/>
  <path class="cls-3" d="M55.23,297.1a.22.22,0,0,0-.38.21c1.07,3.22,4.73,13.55,8.78,17.57,4.83,4.8,8.72,3.48,12.79,9.87,1.44,2.25,3.15,8.33,3.65,10.17a.1.1,0,0,0,.19,0c.22-2.44.86-12.42-2.39-16.77-3.72-5-10.18-8.18-12.49-10.3C63.46,306.07,57.3,299.36,55.23,297.1Z" transform="translate(-33.5 -255.69)"/>
  <path class="cls-3" d="M88.35,352.2s-.78,10.54,1.56,14.26c1.4,2.22,4.49,2.92,6,8.15a.17.17,0,0,0,.33,0c.06-3.88,0-15.5-3-18.86C89.68,351.65,88.35,352.2,88.35,352.2Z" transform="translate(-33.5 -255.69)"/>
  <path class="cls-3" d="M69.41,352.24c-.67,1.19-5.23,9.82-2.18,17.25,0,0,4.36-6.19,2.29-17.23A.06.06,0,0,0,69.41,352.24Z" transform="translate(-33.5 -255.69)"/>
  <path class="cls-3" d="M67.13,369.61a14.16,14.16,0,0,0-12.89,7.77.12.12,0,0,0,.15.17,28.32,28.32,0,0,1,6.21-1.4c2.61-.15,6.14-5.78,6.57-6.47A0,0,0,0,0,67.13,369.61Z" transform="translate(-33.5 -255.69)"/>
  <path class="cls-3" d="M94.18,387.38c-1.07.12-6.14,1-7,6.09,0,0,4.7,3.18,7.15-5.91A.14.14,0,0,0,94.18,387.38Z" transform="translate(-33.5 -255.69)"/>
  <path class="cls-3" d="M82.8,387.47s3.37-4.47.2-8a.11.11,0,0,0-.17,0C82.29,380.08,79.32,383.78,82.8,387.47Z" transform="translate(-33.5 -255.69)"/>
  <path class="cls-3" d="M107.56,391a.22.22,0,0,1,.37.22c-1.07,3.21-4.72,13.54-8.77,17.57-4.83,4.8-8.72,3.47-12.79,9.86-1.44,2.26-3.15,8.34-3.65,10.17,0,.11-.19.1-.19,0-.22-2.45-.86-12.42,2.39-16.78,3.72-5,10.18-8.17,12.49-10.29C99.32,399.93,105.49,393.22,107.56,391Z" transform="translate(-33.5 -255.69)"/>
  <path class="cls-3" d="M88.55,441.21s-3.74-11.54-16.77-11.78" transform="translate(-33.5 -255.69)"/>
  <path class="cls-3" d="M72.77,422.87s3.56,6.66,6.59,8.26" transform="translate(-33.5 -255.69)"/>
  <path class="cls-3" d="M64,427.55c.88-.38,5.18-2,8.12,1.62,0,0-2.23,4.54-8.16-1.42A.12.12,0,0,1,64,427.55Z" transform="translate(-33.5 -255.69)"/>
  <path class="cls-3" d="M73.06,423.32s-4.6-2-3.71-6.13a.11.11,0,0,1,.13-.08C70.18,417.35,74.12,418.91,73.06,423.32Z" transform="translate(-33.5 -255.69)"/>
  <path class="cls-3" d="M80.27,335s3.57-10.13,16.19-10.45" transform="translate(-33.5 -255.69)"/>
  <path class="cls-3" d="M95.61,318s-3.41,6.47-6.33,8" transform="translate(-33.5 -255.69)"/>
  <path class="cls-3" d="M104.11,322.93c-.86-.37-5-1.89-7.86,1.62,0,0,2.19,4.38,7.89-1.43A.11.11,0,0,0,104.11,322.93Z" transform="translate(-33.5 -255.69)"/>
  <path class="cls-3" d="M95.5,318.17s4.43-1.94,3.54-5.95a.09.09,0,0,0-.12-.08C98.24,312.38,94.44,313.91,95.5,318.17Z" transform="translate(-33.5 -255.69)"/>
  <path class="cls-3" d="M86.11,322.35s1.59-7.43-5.91-12.28" transform="translate(-33.5 -255.69)"/>
  <path class="cls-3" d="M83.22,306.49s-.33,5.16.85,7.19" transform="translate(-33.5 -255.69)"/>
  <path class="cls-3" d="M76.34,306.15c.65.1,3.73.73,4.15,3.89,0,0-2.95,1.83-4.24-3.78A.1.1,0,0,1,76.34,306.15Z" transform="translate(-33.5 -255.69)"/>
  <path class="cls-3" d="M83.23,306.85s-2-2.81.06-4.91c0,0,.08,0,.1,0A3.51,3.51,0,0,1,83.23,306.85Z" transform="translate(-33.5 -255.69)"/>
  <path class="cls-3" d="M99.88,332a.14.14,0,0,1,.17.22c-1.42,1.67-6.09,7-9.49,8.45-4,1.73-6.07,0-10,2.86a34.34,34.34,0,0,0-4.63,5.24c0,.06-.13,0-.11-.06.46-1.52,2.46-7.66,5.46-9.5,3.43-2.11,8.07-2.47,10-3.19C92.77,335.39,98.09,332.83,99.88,332Z" transform="translate(-33.5 -255.69)"/>
  <path class="cls-3" d="M107.89,325.44a.35.35,0,0,0-.6-.11c-1.28,1.54-5.65,7.13-5.79,11.61-.17,5.26-.32,6.43-.32,6.43s4.19-1.52,5-5.68c.56-2.94,1.27-3.72,1.64-3.93a.53.53,0,0,0,.28-.41C108.21,332.06,108.61,327.45,107.89,325.44Z" transform="translate(-33.5 -255.69)"/>
  <path class="cls-3" d="M58.28,359.24s4.72-4.51,4.65-6-.38-8.1,1.94-10.61-2.12-2.29-2.86-3.13-3.27-.11-3.23.8S57.83,358.08,58.28,359.24Z" transform="translate(-33.5 -255.69)"/>
  <path class="cls-3" d="M58,358.9A34.54,34.54,0,0,1,55.23,354a67,67,0,0,1-2.08-6.37c-.4-1.26-.8-2.21-1.08-3.35-1.42-5.79-4.63-6.82-2.42-9.17s4.27,1.3,7.05,1.71,2.08,2.26,2.08,3.64S58,358.9,58,358.9Z" transform="translate(-33.5 -255.69)"/>
  <path class="cls-3" d="M57.94,358.87a10.82,10.82,0,0,1-6.54-1.81,8.94,8.94,0,0,1-1.66-2.2,22.52,22.52,0,0,0-3.34-3.44A17.47,17.47,0,0,1,42.52,346a4.21,4.21,0,0,0-1.34-1.4c-1.54-1.32-2.81-.08-2.24-3.5.72-4.24,6-7.58,8-5.9l2,1.68s3.56,7.17,4.55,12S57.94,358.87,57.94,358.87Z" transform="translate(-33.5 -255.69)"/>
  <path class="cls-3" d="M57.94,358.87s0,0,0,.05c-.48.16-2.08.14-4.12.29a17.14,17.14,0,0,1-4.4.29c-4.5-.71-6.38.09-7.22-.59a23.45,23.45,0,0,0-2.15-1.62,5.55,5.55,0,0,0-3.45-1.11c-3.45.11-1.78-3.26-1.64-4.69s-.12-3.64.5-4.43,2.66-4,3.78-3.61,2.81,1.3,4.4,4.51,5.47,5.26,6.7,7.91C51.47,358.31,57,358.8,57.94,358.87Z" transform="translate(-33.5 -255.69)"/>
  <path class="cls-3" d="M58.19,359.11a0,0,0,0,1,0,.07,67.41,67.41,0,0,1-6.29,3.18,20.37,20.37,0,0,1-5.86,1.95,11.94,11.94,0,0,1-4.41-.53,9.21,9.21,0,0,0-2.77-.41,2.92,2.92,0,0,0-1.29.13c-1.2.64-2.39,1.74-3.25-.47-1.15-2.94.83-6.07,2.73-6.61s4.3,2,5.14,2.49,4.7.36,6.27.56S54.93,358.93,58.19,359.11Z" transform="translate(-33.5 -255.69)"/>
  <path class="cls-3" d="M58.19,359.25a.06.06,0,0,1,.08.09c-.58,1.08-4,7.09-8.91,8.16-5.43,1.17-4.45,1-7.21,2.59s-4.82.62-5-1.21-.14-5,.46-5.38,3.67,0,5.67.77,8.38-1.84,8.38-1.84Z" transform="translate(-33.5 -255.69)"/>
  <path class="cls-3" d="M101.52,343.26a.1.1,0,0,0,0,.17c1.13.47,8,3,11.84-2.48,4-5.75,1.15-6,3.3-10.52a.37.37,0,0,0-.38-.53c-1.62.23-5.69,1-7.78,3.08-2.65,2.64-2.27,5.63-3.07,6.79A13.42,13.42,0,0,1,101.52,343.26Z" transform="translate(-33.5 -255.69)"/>
  <path class="cls-3" d="M56.88,398c17,7.46,22.81,24.26,22.81,24.26" transform="translate(-33.5 -255.69)"/>
  <path class="cls-3" d="M57.26,398s.18,3.64-2,6-3.17,5.2-3.69,5.82-3.59,2.6-5.8,1.16c-1.75-1.15-1.49-4.55-1.32-5.89a1,1,0,0,1,.59-.77l6-2.66Z" transform="translate(-33.5 -255.69)"/>
  <path class="cls-3" d="M57.07,398.08a.07.07,0,0,1,0,.12c-1.93,1.19-12.43,7.52-14.67,5.57-2.48-2.14-.29-3.48-.52-6s0-8,3.28-7.33a.57.57,0,0,1,.4.34c.36.84.26,2,1,3.25.36.61,2,3.45,4.12,4.33S55.44,398.43,57.07,398.08Z" transform="translate(-33.5 -255.69)"/>
  <path class="cls-3" d="M67.51,405s.61,8.28-1.23,11.21c-1.1,1.74-3.53,2.29-4.7,6.4a.13.13,0,0,1-.26,0c0-3.05,0-12.18,2.34-14.83C66.46,404.52,67.51,405,67.51,405Z" transform="translate(-33.5 -255.69)"/>
  <path class="cls-3" d="M52.15,383.92a.27.27,0,0,1,.47-.09c1,1.21,4.44,5.6,4.55,9.13.13,4.14.25,5.05.25,5.05a6.44,6.44,0,0,1-3.91-4.46c-.44-2.31-1-2.93-1.29-3.09a.41.41,0,0,1-.22-.32C51.89,389.12,51.58,385.5,52.15,383.92Z" transform="translate(-33.5 -255.69)"/>
  <path class="cls-3" d="M57.15,397.92a.08.08,0,0,1,0,.14c-.89.37-6.28,2.36-9.31-1.95-3.17-4.52-.9-4.69-2.6-8.27a.29.29,0,0,1,.3-.41c1.27.18,4.48.78,6.12,2.42,2.09,2.07,1.78,4.42,2.42,5.33A10.52,10.52,0,0,0,57.15,397.92Z" transform="translate(-33.5 -255.69)"/>
  <path class="cls-3" d="M101.39,299.76s1.33,6,6.37,6.54,1.88.11,5.52.94a7.92,7.92,0,0,0,6.27-1.59c.53-.34,1-1.1,1.11-.75.46,1.23-.21,2.1-.88,4.36-1,3.21.09,3.16-.73,4.41s-9.94,5.26-14.6-3.12S101.39,299.76,101.39,299.76Z" transform="translate(-33.5 -255.69)"/>
  <circle class="cls-5" cx="161.94" cy="124.01" r="123.3"/>
  <text class="cls-6" transform="translate(328.55 143.38) rotate(0.07)">S<tspan class="cls-7" x="38.74" y="0">YRRE</tspan><tspan class="cls-8" x="197.92" y="0">L</tspan><tspan class="cls-7" x="229.39" y="0"> </tspan><tspan class="cls-9" x="244.74" y="0">C</tspan><tspan class="cls-10" x="290.08" y="0">ABILING</tspan></text>
</svg>
