<svg id="Layer_1" data-name="Layer 1" xmlns="http://www.w3.org/2000/svg" viewBox="0 0 1063.17 964.2">
  <defs>
    <style>
      .cls-1, .cls-3, .cls-4, .cls-5 {
        fill: none;
      }

      .cls-1, .cls-2, .cls-3, .cls-4, .cls-5 {
        stroke: #fff;
      }

      .cls-1, .cls-2, .cls-3, .cls-4 {
        stroke-miterlimit: 10;
      }

      .cls-1 {
        stroke-width: 11.95px;
      }

      .cls-2, .cls-6 {
        fill: #fff;
      }

      .cls-2, .cls-4, .cls-5 {
        stroke-width: 5.98px;
      }

      .cls-3 {
        stroke-width: 4.48px;
      }

      .cls-5 {
        stroke-linejoin: round;
      }

      .cls-6 {
        font-size: 48.98px;
        font-family: Manrope-Bold, Manrope;
        font-weight: 700;
      }
    </style>
  </defs>
  <title>white-Logo</title>
  <line class="cls-1" x1="538.12" y1="463.53" x2="852.79" y2="245.48"/>
  <line class="cls-1" x1="368.44" y1="635.64" x2="675.96" y2="422.56"/>
  <path id="Bottom-S" class="cls-2" d="M663.25,614.19c.65,0,61.49,26.82,78.49,68.68,12.43,33.36-4.57,98.77-56.91,117.74a222.3,222.3,0,0,1-64.76,9.82c-71.3,0-136.71-32.71-170.72-83.08V709.69h-7.2V762h7.2V741.74c39.24,49.06,102.7,75.88,170.72,75.88,92.23,0,199.51-61.49,204.74-160.91,0-70.65-66.06-108.59-121.66-134.76-6.72-3.39-14.43-6.84-22.76-10.36L582.4,580Z" transform="translate(-3.82 -93.07)"/>
  <g id="Top-S">
    <path class="cls-2" d="M561.63,455.22c-.65,0-61.49-26.81-78.49-68.68-12.43-33.35,4.58-98.77,56.91-117.74A222.29,222.29,0,0,1,604.81,259c71.3,0,136.71,32.71,170.72,83.08v17.65h7.2V307.39h-7.2v20.29c-39.24-49.07-102.7-75.89-170.72-75.89-92.23,0-199.51,61.49-204.74,160.92,0,70.64,66.06,108.59,121.66,134.75,6.72,3.4,14.43,6.84,22.76,10.37l98-68.43Z" transform="translate(-3.82 -93.07)"/>
  </g>
  <path class="cls-3" d="M208.75,780.59s-167.58-269,49.65-525.24" transform="translate(-3.82 -93.07)"/>
  <path class="cls-4" d="M259.36,419.7C178.89,455,149.23,533.08,149.23,533.08" transform="translate(-3.82 -93.07)"/>
  <path class="cls-4" d="M148.63,551.8s-6-29.19-53.57-75.63" transform="translate(-3.82 -93.07)"/>
  <path class="cls-4" d="M166,679.56s-8-45.49,38.65-73.3" transform="translate(-3.82 -93.07)"/>
  <path class="cls-4" d="M188.06,582.87s.86,31.42-6.77,43.48" transform="translate(-3.82 -93.07)"/>
  <path class="cls-4" d="M259,256.45a58.4,58.4,0,0,1-2.2-15.13c.05-7.64,1.42-55.48-1.85-68.33s39.7-11.75,55.79,14.53c5.49,9,.56,9.78-2.27,16.18-5.44,12.33-21.27,22-21.27,22Z" transform="translate(-3.82 -93.07)"/>
  <path class="cls-4" d="M327.6,251.64a5.28,5.28,0,0,1,5.78.58c2.71,2.2,6.64,5.36,7.75,6.11,1.72,1.18,1.4,3.29-4.59,9.42s-16.23,20-27.66,17.2-20.26-3.66-22.33-3.15c-1.71.43-16.81-4-24.63-15.82-1.13-1.7-4.61-6.92-3.79-8.5s6.27.28,8.5.37c6.61.28,15.72.65,22.19.83,11.32.31,20.62,2.38,31.25-3.13Z" transform="translate(-3.82 -93.07)"/>
  <path class="cls-4" d="M258.13,257.48s12.7-13.11,36.65-37.27c9.41-9.49,13.48-16.35,21.24-18,11.88-2.48,25.35,5.85,29.5,5.8a3.19,3.19,0,0,1,3.23,3.22c-.08,8.45-1.82,31.7-18.06,38.77-20,8.69-12.77,8.36-35.21,9S258.13,257.48,258.13,257.48Z" transform="translate(-3.82 -93.07)"/>
  <path class="cls-4" d="M257.56,255.46a202.68,202.68,0,0,1-29.12-33.71c-13.16-19.46-31.49-18.6-31.33-44.47s37.43-14.33,41.18-14.16S253.87,165,255,173,257.56,255.46,257.56,255.46Z" transform="translate(-3.82 -93.07)"/>
  <path class="cls-5" d="M252.94,258.37s-16.49,3.89-29-1.34-15.19-16.33-23.84-13.55-27,10.81-30.49,1.1c-3.15-8.69-.18-32.35,18.59-45.4a19.06,19.06,0,0,1,14.26-2.87h0a145.61,145.61,0,0,1,30.61,32c13.9,20,25,29.19,25,29.19Z" transform="translate(-3.82 -93.07)"/>
  <path class="cls-4" d="M257.53,419.7s-.85,17.24,9.73,28.23,15,24.59,17.45,27.52,17,12.33,27.42,5.52c8.33-5.43,7.1-21.54,6.25-27.88a4.66,4.66,0,0,0-2.75-3.64l-28.39-12.57Z" transform="translate(-3.82 -93.07)"/>
  <path class="cls-4" d="M258.44,420.07a.31.31,0,0,0-.24.56c9.12,5.63,58.82,35.56,69.44,26.36,11.71-10.15,1.35-16.46,2.44-28.22,1.06-11.46.09-37.92-15.53-34.68a2.69,2.69,0,0,0-1.87,1.6c-1.73,4-1.23,9.54-4.71,15.39-1.74,2.91-9.3,16.32-19.51,20.5C278.5,425.66,266.14,421.7,258.44,420.07Z" transform="translate(-3.82 -93.07)"/>
  <path class="cls-4" d="M85.79,247.56a.82.82,0,0,0-1.39.8c4,12,17.59,50.41,32.66,65.39,18,17.85,32.43,12.93,47.59,36.7,5.34,8.38,11.72,31,13.57,37.84a.37.37,0,0,0,.72-.06c.79-9.09,3.19-46.2-8.91-62.42-13.84-18.55-37.86-30.41-46.47-38.31C116.44,281,93.5,256,85.79,247.56Z" transform="translate(-3.82 -93.07)"/>
  <path class="cls-4" d="M209,452.6s-2.89,39.21,5.83,53.07c5.19,8.25,16.7,10.83,22.23,30.3a.62.62,0,0,0,1.23-.14c.23-14.45,0-57.67-11-70.18C214,450.56,209,452.6,209,452.6Z" transform="translate(-3.82 -93.07)"/>
  <path class="cls-4" d="M138.56,452.74c-2.48,4.43-19.47,36.56-8.13,64.18,0,0,16.24-23,8.54-64.09A.22.22,0,0,0,138.56,452.74Z" transform="translate(-3.82 -93.07)"/>
  <path class="cls-4" d="M130.07,517.37c-3.29-.14-32.66-.51-47.93,28.9a.47.47,0,0,0,.55.67c3.48-1.18,14.66-4.75,23.1-5.24,9.71-.56,22.85-21.48,24.43-24.06A.17.17,0,0,0,130.07,517.37Z" transform="translate(-3.82 -93.07)"/>
  <path class="cls-4" d="M230.71,583.51c-4,.44-22.83,3.55-26.05,22.66,0,0,17.47,11.8,26.6-22A.52.52,0,0,0,230.71,583.51Z" transform="translate(-3.82 -93.07)"/>
  <path class="cls-4" d="M188.08,583.84s12.53-16.64.74-29.81a.42.42,0,0,0-.63,0C186.16,556.32,175.12,570.09,188.08,583.84Z" transform="translate(-3.82 -93.07)"/>
  <path class="cls-4" d="M279.72,597.23a.82.82,0,0,1,1.39.81c-4,12-17.59,50.4-32.66,65.38-18,17.85-32.43,12.93-47.59,36.7-5.34,8.38-11.72,31-13.57,37.85a.37.37,0,0,1-.72-.07c-.8-9.09-3.19-46.2,8.91-62.42,13.84-18.55,37.86-30.4,46.47-38.3C249.07,630.64,272,605.67,279.72,597.23Z" transform="translate(-3.82 -93.07)"/>
  <path class="cls-4" d="M207.8,779.67S193.86,740.86,145.37,740" transform="translate(-3.82 -93.07)"/>
  <path class="cls-3" d="M151.07,715.57s13.25,24.74,24.51,30.72" transform="translate(-3.82 -93.07)"/>
  <path class="cls-4" d="M116.12,733c3.27-1.41,19.27-7.36,30.23,6,0,0-8.32,16.88-30.36-5.29A.46.46,0,0,1,116.12,733Z" transform="translate(-3.82 -93.07)"/>
  <path class="cls-4" d="M152.13,716.45S135,709.1,138.35,693.66a.38.38,0,0,1,.48-.29C141.43,694.26,156.09,700.05,152.13,716.45Z" transform="translate(-3.82 -93.07)"/>
  <path class="cls-4" d="M179,388.57s13.26-37.68,60.22-38.88" transform="translate(-3.82 -93.07)"/>
  <path class="cls-4" d="M236,325.24s-12.68,24.06-23.54,29.92" transform="translate(-3.82 -93.07)"/>
  <path class="cls-4" d="M267.67,343.68c-3.18-1.35-18.71-7-29.24,6,0,0,8.17,16.3,29.37-5.32A.44.44,0,0,0,267.67,343.68Z" transform="translate(-3.82 -93.07)"/>
  <path class="cls-4" d="M235.63,326s16.5-7.24,13.2-22.17a.37.37,0,0,0-.47-.27C245.85,304.42,231.69,310.13,235.63,326Z" transform="translate(-3.82 -93.07)"/>
  <path class="cls-4" d="M200.7,341.53s5.91-27.64-22-45.71" transform="translate(-3.82 -93.07)"/>
  <path class="cls-4" d="M190,282.52s-1.23,19.21,3.16,26.75" transform="translate(-3.82 -93.07)"/>
  <path class="cls-4" d="M164.36,281.27c2.42.36,13.89,2.68,15.42,14.45,0,0-10.95,6.82-15.76-14.06A.32.32,0,0,1,164.36,281.27Z" transform="translate(-3.82 -93.07)"/>
  <path class="cls-4" d="M190,283.86s-7.29-10.46.23-18.25a.25.25,0,0,1,.38,0C191.78,267.07,198.22,275.74,190,283.86Z" transform="translate(-3.82 -93.07)"/>
  <path class="cls-4" d="M251.92,377.32a.53.53,0,0,1,.64.81c-5.26,6.24-22.65,26.08-35.3,31.46-15.07,6.42-22.59,0-37.4,10.65-5.21,3.75-14.47,15.83-17.22,19.49a.24.24,0,0,1-.42-.22c1.7-5.65,9.16-28.52,20.32-35.37,12.76-7.83,30-9.19,37.11-11.88C225.49,390,245.26,380.54,251.92,377.32Z" transform="translate(-3.82 -93.07)"/>
  <path class="cls-4" d="M281.73,353a1.31,1.31,0,0,0-2.24-.42c-4.74,5.72-21,26.51-21.53,43.21-.62,19.57-1.19,23.91-1.19,23.91s15.59-5.65,18.53-21.12c2.08-11,4.73-13.86,6.09-14.62a2,2,0,0,0,1.05-1.54C282.93,377.66,284.44,360.52,281.73,353Z" transform="translate(-3.82 -93.07)"/>
  <path class="cls-4" d="M97.14,478.8s17.59-16.78,17.33-22.21-1.42-30.15,7.2-39.5-7.9-8.51-10.63-11.65-12.18-.38-12,3S95.46,474.47,97.14,478.8Z" transform="translate(-3.82 -93.07)"/>
  <path class="cls-4" d="M96.13,477.51a127.42,127.42,0,0,1-10.32-18.35c-2.91-6.37-5.45-16.51-7.74-23.73-1.49-4.67-3-8.21-4-12.44-5.31-21.55-17.23-25.39-9-34.13s15.88,4.83,26.24,6.38S99,403.65,99,408.77,96.13,477.51,96.13,477.51Z" transform="translate(-3.82 -93.07)"/>
  <path class="cls-4" d="M95.88,477.41s-13.77,1.07-24.33-6.74c-2.63-1.95-4-5.08-6.17-8.18-4-5.8-8.83-9.17-12.42-12.79-6-6.07-10.38-11.48-14.45-20.28-1.26-2.72-3.63-4-5-5.21-5.71-4.92-10.45-.31-8.3-13,2.66-15.79,22.39-28.2,29.72-21.95l7.34,6.24s13.22,26.71,16.9,44.58S95.88,477.41,95.88,477.41Z" transform="translate(-3.82 -93.07)"/>
  <path class="cls-4" d="M95.88,477.41a.09.09,0,0,1,0,.18c-1.78.6-7.73.51-15.31,1.1-4.93.39-10.37,2-16.38,1.06-16.75-2.62-23.73.33-26.86-2.17a85.45,85.45,0,0,0-8-6c-3.2-2-6.76-4.33-12.85-4.13-12.81.41-6.6-12.14-6.1-17.45s-.44-13.56,1.88-16.5,9.88-15,14-13.43,10.45,4.82,16.39,16.77,20.36,19.57,24.91,29.45C71.81,475.33,92.49,477.16,95.88,477.41Z" transform="translate(-3.82 -93.07)"/>
  <path class="cls-4" d="M96.81,478.31a.15.15,0,0,1,.07.27,252.49,252.49,0,0,1-23.39,11.81c-7.4,3.3-15.06,6.68-21.8,7.27-7.75.68-12.76-1.1-16.41-2-4.94-1.18-7.34-1.69-10.32-1.55-1.68.09-3.3-.28-4.79.51-4.45,2.38-8.88,6.45-12.09-1.75C3.79,482,11.17,470.31,18.25,468.28s16,7.51,19.11,9.3,17.48,1.31,23.33,2.05S84.69,477.65,96.81,478.31Z" transform="translate(-3.82 -93.07)"/>
  <path class="cls-4" d="M96.8,478.84a.23.23,0,0,1,.32.31c-2.15,4-14.77,26.38-33.14,30.36-20.22,4.38-16.59,3.78-26.85,9.64s-17.94,2.34-18.69-4.51-.52-18.6,1.73-20,13.66,0,21.1,2.84,31.19-6.81,31.19-6.81Z" transform="translate(-3.82 -93.07)"/>
  <path class="cls-4" d="M258.06,419.32a.37.37,0,0,0,.07.64c4.2,1.74,29.72,11.17,44-9.23,15-21.38,4.28-22.17,12.3-39.14a1.38,1.38,0,0,0-1.42-2c-6,.85-21.17,3.7-29,11.47-9.86,9.82-8.41,20.95-11.42,25.25C267.35,414,260.44,417.55,258.06,419.32Z" transform="translate(-3.82 -93.07)"/>
  <path class="cls-4" d="M89.75,623c63.26,27.78,86.59,89.14,86.59,89.14" transform="translate(-3.82 -93.07)"/>
  <path class="cls-4" d="M93.36,623s.67,13.56-7.65,22.19S74,664.56,72,666.86s-13.34,9.69-21.56,4.34c-6.55-4.27-5.58-16.93-4.92-21.92a3.64,3.64,0,0,1,2.16-2.86L70,636.54Z" transform="translate(-3.82 -93.07)"/>
  <path class="cls-4" d="M92.65,623.32a.24.24,0,0,1,.18.44c-7.16,4.42-46.24,28-54.59,20.72-9.2-8-1.06-12.94-1.91-22.19-.84-9-.08-29.8,12.21-27.26A2.12,2.12,0,0,1,50,596.29c1.36,3.14,1,7.5,3.71,12.1,1.36,2.28,7.31,12.83,15.34,16.12C76.87,627.72,86.59,624.6,92.65,623.32Z" transform="translate(-3.82 -93.07)"/>
  <path class="cls-4" d="M130.13,649.68s2.27,30.83-4.58,41.73c-4.08,6.48-13.13,8.52-17.48,23.82a.49.49,0,0,1-1-.1c-.18-11.37,0-45.35,8.68-55.18C126.22,648.08,130.13,649.68,130.13,649.68Z" transform="translate(-3.82 -93.07)"/>
  <path class="cls-4" d="M74.34,570.62a1,1,0,0,1,1.76-.33c3.73,4.5,16.51,20.84,16.92,34,.49,15.39.94,18.8.94,18.8s-12.25-4.44-14.57-16.6c-1.63-8.62-3.71-10.9-4.79-11.5a1.56,1.56,0,0,1-.82-1.21C73.39,590,72.21,576.5,74.34,570.62Z" transform="translate(-3.82 -93.07)"/>
  <path class="cls-4" d="M93,622.73a.29.29,0,0,1-.06.5C89.59,624.6,69.52,632,58.27,616c-11.78-16.8-3.36-17.42-9.66-30.77a1.08,1.08,0,0,1,1.11-1.54c4.73.67,16.65,2.91,22.77,9,7.76,7.72,6.62,16.47,9,19.86C85.65,618.52,91.07,621.34,93,622.73Z" transform="translate(-3.82 -93.07)"/>
  <path class="cls-4" d="M257.56,257.48s5,22.35,23.69,24.32c18.28,1.93,7,.43,20.56,3.49,10.13,2.29,17.9-2.36,23.3-5.88,2-1.29,3.64-4.09,4.13-2.8,1.72,4.58-.77,7.79-3.27,16.22-3.55,11.95.33,11.75-2.71,16.4s-37,19.58-54.3-11.59S257.56,257.48,257.56,257.48Z" transform="translate(-3.82 -93.07)"/>
  <text class="cls-6" transform="translate(338.45 855.77) rotate(31.67)">S</text>
  <text class="cls-6" transform="translate(376.11 878.4) rotate(26.41)">Y</text>
  <text class="cls-6" transform="matrix(0.93, 0.36, -0.36, 0.93, 416.2, 897.69)">R</text>
  <text class="cls-6" transform="translate(459.57 913.6) rotate(15.27)">R</text>
  <text class="cls-6" transform="translate(504.2 925.11) rotate(9.84)">E</text>
  <text class="cls-6" transform="translate(546.77 931.89) rotate(4.88)">L</text>
  <text class="cls-6" transform="matrix(1, 0.03, -0.03, 1, 582.61, 934.47)"> </text>
  <text class="cls-6" transform="translate(604.19 935.2) rotate(-2.65)">C</text>
  <text class="cls-6" transform="translate(654.41 932.16) rotate(-8.4)">A</text>
  <text class="cls-6" transform="translate(699.53 924.88) rotate(-13.94)">B</text>
  <text class="cls-6" transform="translate(742.55 913.4) rotate(-18.22)">I</text>
  <text class="cls-6" transform="matrix(0.93, -0.38, 0.38, 0.93, 766.61, 905.32)">L</text>
  <text class="cls-6" transform="translate(802.4 890.1) rotate(-26.02)">I</text>
  <text class="cls-6" transform="matrix(0.86, -0.51, 0.51, 0.86, 825.61, 878.78)">N</text>
  <text class="cls-6" transform="matrix(0.8, -0.6, 0.6, 0.8, 869.23, 852.22)">G</text>
  <path id="Outer-Circle" class="cls-4" d="M331.54,920.41C220.23,836.88,148.22,703.82,148.22,554c0-252.89,205-457.9,457.89-457.9S1064,301.06,1064,554c0,133-56.73,252.81-147.33,336.47" transform="translate(-3.82 -93.07)"/>
</svg>
