<svg id="a8118589-bfd3-4ed9-a485-58740795bbbd" xmlns="http://www.w3.org/2000/svg" xmlns:xlink="http://www.w3.org/1999/xlink" viewBox="0 0 856 775">
  <defs>
    <style>
      .cls-1 {
        fill: url(#linear-gradient);
      }

      .cls-2 {
        fill: #535461;
      }

      .cls-3 {
        opacity: 0.1;
        isolation: isolate;
      }

      .cls-4 {
        fill: #4d8af0;
      }

      .cls-5 {
        fill: #fda57d;
      }

      .cls-6 {
        fill: #72351c;
      }

      .cls-7 {
        fill: url(#linear-gradient-2);
      }

      .cls-8 {
        fill: #df9575;
      }

      .cls-12, .cls-13, .cls-9 {
        fill: none;
        stroke-miterlimit: 10;
      }

      .cls-9 {
        stroke: #e6e6e6;
      }

      .cls-10 {
        fill: url(#linear-gradient-3);
      }

      .cls-11 {
        fill: #f5f5f5;
      }

      .cls-12, .cls-13 {
        stroke: #df9575;
      }

      .cls-13 {
        stroke-linecap: round;
        stroke-width: 0.5px;
      }
    </style>
    <linearGradient id="linear-gradient" x1="719.24" y1="-61.5" x2="719.24" y2="713.5" gradientTransform="matrix(1, 0, 0, -1, -172, 713.5)" gradientUnits="userSpaceOnUse">
      <stop offset="0" stop-color="gray" stop-opacity="0.25"/>
      <stop offset="0.54" stop-color="gray" stop-opacity="0.12"/>
      <stop offset="1" stop-color="gray" stop-opacity="0.1"/>
    </linearGradient>
    <linearGradient id="linear-gradient-2" x1="778.28" y1="471.67" x2="778.28" y2="689.56" xlink:href="#linear-gradient"/>
    <linearGradient id="linear-gradient-3" x1="33.46" y1="608.4" x2="33.46" y2="675.32" gradientTransform="matrix(1, 0, 0, -1, 0, 776)" xlink:href="#linear-gradient"/>
  </defs>
  <title>Cricket-splash</title>
  <path class="cls-1" d="M807.06,683.84l-.34.36L664,548.89l-19-85.7c0-.52.06-1,.07-1.55l-.89-4a67.62,67.62,0,0,0-6.53-29.2L653.3,279.59v-1.86c0-2.55-.13-5.06-.37-7.54a36.58,36.58,0,0,0-.65-5,78.24,78.24,0,0,0-71.54-65.45h0v-13.5q3.19-1,6.26-2.22a43.33,43.33,0,0,0,19,4.16c10.16.26,22.66-3.55,32-19.85,18.61-32.57,64.2-58.62,36.29-84.67s-24.66-22.8-29.31-47-4.19-34-47-35.82C586.61.35,576.43,0,567.56,0,541.92-.11,526.8,2.66,525.4,13.87c-1.86,14.89-58.48,1.69-23.19,61.79,0,0,.31.47.9,1.3a70.7,70.7,0,0,0,36.71,109.28v16.18a42.48,42.48,0,0,0-27,38.18l-98.75-46.82a14,14,0,0,0,1-2.66c-20.47-5.58-25.64,9.76-25.64,9.76,7.53,2.41,12.91,2,16.74.41l-4,11.73c-9.53-8.21-29.07-21.6-37.28-2-11.06,26.44,29.67,35.9,29.67,35.9l.08-.18,117.82,62.59-.2,1.76.47.25V426h-.47l.47.82v1.25l-178.54,157-34,174.07H290A15.82,15.82,0,0,0,274.13,775h61.41l-2.79-15.82H317l15.47-.28,93.34-158.82,146.86-66.41,1.24,2.19.3-.14,56.28,99.71,157.25,67.92,5.44-5.18L777.3,714.6a15.82,15.82,0,0,0,.37,22.37h0l42.69-44.14Z" transform="translate(0 0)"/>
  <path class="cls-2" d="M591.66,255.12,533.32,317,403.06,224.2l9.5-28.2,111.26,52.75L571.48,196S593.69,223.29,591.66,255.12Z" transform="translate(0 0)"/>
  <path class="cls-3" d="M532.41,317l58.34-61.85c1.38-21.55-8.35-41-14.78-51.33-.81,0-1.62-.06-2.44-.06h-9.94l-40.68,45-10.21-4.84v59Z" transform="translate(0 0)"/>
  <polygon class="cls-4" points="513.12 425.2 628.63 629.85 782.34 696.24 801.44 678.05 661.37 545.26 634.99 426.11 513.12 425.2"/>
  <path class="cls-3" d="M514.94,429.1l58.38,103.4,30.5-13.79A66.48,66.48,0,0,0,642.89,460l-7-31.59-119.46-.61Z" transform="translate(0 0)"/>
  <path class="cls-4" d="M515.54,425.5,339,580.66,305.71,751.11l31.61-.58,91.24-155.24L602.91,516.5a66.5,66.5,0,0,0,33.23-88q-.54-1.22-1.14-2.4h0Z" transform="translate(0 0)"/>
  <path class="cls-3" d="M635.45,429.3l-121.88-1.8V247.08a41.52,41.52,0,0,1,41.52-41.52h19.34A76.47,76.47,0,0,1,650.9,282Z" transform="translate(0 0)"/>
  <path class="cls-2" d="M635.45,427.5l-121.88-1.82V245.26a41.52,41.52,0,0,1,41.52-41.52h19.34a76.47,76.47,0,0,1,76.47,76.47Z" transform="translate(0 0)"/>
  <path class="cls-2" d="M340.31,766.27h-60a15.46,15.46,0,0,1,15.46-15.46h41.84Z" transform="translate(0 0)"/>
  <path class="cls-2" d="M814.22,686,772.48,729.1h0a15.46,15.46,0,0,1-.37-21.86l29.09-30.07Z" transform="translate(0 0)"/>
  <path class="cls-3" d="M650.46,282.41l-78.22,61.85-59.12-31.41,5.72-51.19L559.51,276,590,250.91c24.61-20.31,62.23-2.08,60.63,29.79Q650.53,281.55,650.46,282.41Z" transform="translate(0 0)"/>
  <path class="cls-5" d="M540,158.26h40v54.93a16,16,0,0,1-16,16h-8a16,16,0,0,1-16-16V158.26Z" transform="translate(0 0)"/>
  <path class="cls-3" d="M540,192.6a69.33,69.33,0,0,0,40,0V160.08H540Z" transform="translate(0 0)"/>
  <circle class="cls-5" cx="559.96" cy="124.6" r="69.12"/>
  <path class="cls-3" d="M503.18,82.68s24.49,36.92,47.23,29.64l34.87,75.87s30.62,16.9,48.81-14.93,62.76-57.3,35.47-82.77-45.48-22.74-50-46.39S636.81,11.37,595,9.55s-67.3-1.82-69.12,12.73S468.69,23.93,503.18,82.68Z" transform="translate(0 0)"/>
  <path class="cls-6" d="M505,82.68s24.49,36.92,47.23,29.64L587.1,188.2s30.62,16.9,48.81-14.93S698.67,116,671.38,90.5s-24.1-22.28-28.65-45.93-4.09-33.2-45.93-35S529.5,7.75,527.68,22.3,470.51,23.93,505,82.68Z" transform="translate(0 0)"/>
  <polygon class="cls-2" points="541.49 229.2 579.97 203.93 591.79 216.47 566.32 241.93 541.49 229.2"/>
  <ellipse class="cls-5" cx="559.96" cy="132.79" rx="6.37" ry="13.64"/>
  <path class="cls-7" d="M854.39,38.26h0a22.67,22.67,0,0,1-12.7,29.45l-.3.12-475.82,174-9-21.88L824.62,25.68a22.68,22.68,0,0,1,29.64,12.26C854.3,38.05,854.35,38.15,854.39,38.26Z" transform="translate(0 0)"/>
  <path class="cls-8" d="M851.21,39.5h0a22.38,22.38,0,0,1-12.54,29.06l-.34.13L368.66,240.5l-8.92-21.6L821.83,27.11a22.38,22.38,0,0,1,29.25,12.08C851.13,39.29,851.17,39.4,851.21,39.5Z" transform="translate(0 0)"/>
  <path class="cls-3" d="M650.46,278.77l-78.22,61.85L397.61,247.85l12.73-28.2L559.5,272.4l30.44-25.13c24.61-20.31,62.23-2.08,60.63,29.79C650.54,277.63,650.51,278.2,650.46,278.77Z" transform="translate(0 0)"/>
  <path class="cls-2" d="M650.46,280.59l-78.22,61.85L397.61,249.66l12.73-28.16L559.5,274.22l30.44-25.13c24.61-20.31,62.23-2.08,60.63,29.79C650.54,279.45,650.51,280,650.46,280.59Z" transform="translate(0 0)"/>
  <path class="cls-5" d="M398.06,250.12s-39.81-9.25-29-35.09,41.73,6.9,41.73,6.9Z" transform="translate(0 0)"/>
  <path class="cls-5" d="M418.07,195.5S414.32,211.86,393,205C393,205.09,398.06,190.09,418.07,195.5Z" transform="translate(0 0)"/>
  <path class="cls-9" d="M116,118.83a31,31,0,0,1,33.05,11.57c3.5,5,5.51,10.95,9.64,15.39C169.14,157,188,153.55,201,145.5s24.15-19.77,38.83-24.07c8-2.34,16.45-2.27,24.77-2.19,16.78.17,34,.23,49.71-5.75" transform="translate(0 0)"/>
  <path class="cls-9" d="M116,140.35a31,31,0,0,1,33.05,11.57c3.5,5,5.51,11,9.64,15.39,10.45,11.19,29.31,7.75,42.31-.26s24.15-19.77,38.83-24.07c8-2.34,16.45-2.27,24.77-2.19,16.78.17,34,.23,49.71-5.75" transform="translate(0 0)"/>
  <circle class="cls-10" cx="33.46" cy="134.14" r="33.46"/>
  <circle class="cls-11" cx="33.46" cy="134.14" r="31.65"/>
  <path class="cls-12" d="M6.43,117.5s11.72,24.06.56,34.14" transform="translate(0 0)"/>
  <path class="cls-13" d="M6.59,121.23l1.22.91a5.23,5.23,0,0,1,2.39-2.35" transform="translate(0 0)"/>
  <path class="cls-13" d="M7.12,123.9a4.43,4.43,0,0,1,2.15,1.61,4.87,4.87,0,0,1,2.28-2.9" transform="translate(0 0)"/>
  <path class="cls-13" d="M9,127.58a3,3,0,0,1,1.56,1.66A21.77,21.77,0,0,1,13,126.65" transform="translate(0 0)"/>
  <path class="cls-13" d="M9.58,130.86a3.38,3.38,0,0,1,1.58,2.44A7.06,7.06,0,0,1,14,130.94" transform="translate(0 0)"/>
  <path class="cls-13" d="M10.05,135.3a1.06,1.06,0,0,1,1.06.47,3.14,3.14,0,0,1,.43,1.15,7,7,0,0,1,3.83-2.29" transform="translate(0 0)"/>
  <path class="cls-13" d="M10.61,137.78a2.16,2.16,0,0,1,.69,1.79l3.94-1.34" transform="translate(0 0)"/>
  <path class="cls-13" d="M10.34,142a4,4,0,0,1,.66,1.6,16.51,16.51,0,0,1,3.57-1.45" transform="translate(0 0)"/>
  <path class="cls-13" d="M9.41,145a15.32,15.32,0,0,1,.11,2.62c1.45-.31,2.92-.57,4.4-.78" transform="translate(0 0)"/>
  <path class="cls-12" d="M60.49,117.5s-11.72,24.06-.56,34.14" transform="translate(0 0)"/>
  <path class="cls-13" d="M60.33,121.23l-1.22.91a5.23,5.23,0,0,0-2.39-2.35" transform="translate(0 0)"/>
  <path class="cls-13" d="M59.81,123.9a4.43,4.43,0,0,0-2.15,1.61,4.87,4.87,0,0,0-2.28-2.9" transform="translate(0 0)"/>
  <path class="cls-13" d="M58,127.58a3,3,0,0,0-1.56,1.66A21.77,21.77,0,0,0,54,126.65" transform="translate(0 0)"/>
  <path class="cls-13" d="M57.34,130.86a3.38,3.38,0,0,0-1.58,2.44,7.06,7.06,0,0,0-2.86-2.36" transform="translate(0 0)"/>
  <path class="cls-13" d="M56.87,135.3a1.06,1.06,0,0,0-1.06.47,3.14,3.14,0,0,0-.43,1.15,7,7,0,0,0-3.83-2.29" transform="translate(0 0)"/>
  <path class="cls-13" d="M56.31,137.78a2.16,2.16,0,0,0-.69,1.79l-3.94-1.34" transform="translate(0 0)"/>
  <path class="cls-13" d="M56.59,142a4,4,0,0,0-.66,1.6,16.51,16.51,0,0,0-3.57-1.45" transform="translate(0 0)"/>
  <path class="cls-13" d="M57.52,145a15.32,15.32,0,0,0-.11,2.62c-1.45-.31-2.92-.57-4.4-.78" transform="translate(0 0)"/>
</svg>
