<svg id="Layer_1" data-name="Layer 1" xmlns="http://www.w3.org/2000/svg" viewBox="0 0 1023.28 400.92"><defs><style>.cls-1{fill:#174793;}.cls-2,.cls-4,.cls-5,.cls-6{fill:none;stroke-linecap:round;}.cls-2{stroke:#174793;}.cls-2,.cls-4,.cls-6{stroke-linejoin:round;}.cls-2,.cls-6{stroke-width:15.97px;}.cls-3{fill:#fff;}.cls-4{stroke:#fff;stroke-width:22.16px;}.cls-5{stroke:#000;stroke-miterlimit:10;stroke-width:16.17px;}.cls-6{stroke:#f1a301;}.cls-7,.cls-9{font-size:96.88px;}.cls-10,.cls-12,.cls-7,.cls-9{font-family:SourceSansPro-Bold, Source Sans Pro;font-weight:700;}.cls-8{letter-spacing:-0.01em;}.cls-9{letter-spacing:0em;}.cls-10,.cls-12{font-size:63.21px;}.cls-10{letter-spacing:-0.01em;}.cls-11{letter-spacing:0em;}</style></defs><title>Logo</title><path class="cls-1" d="M291.39,240.86l-1.57,130.68A23.41,23.41,0,0,1,266.4,395H114.29c-12.92,0-21.77-9.15-21.77-22.07l1.56-132,100.28-58.22Z" transform="translate(-37.72 -17.21)"/><polyline class="cls-2" points="11.13 244.08 155.16 158.39 294.24 242.49"/><circle class="cls-3" cx="156" cy="262.85" r="31.8"/><line class="cls-4" x1="156" y1="335.54" x2="156" y2="271.94"/><path class="cls-5" d="M192.88,269.4" transform="translate(-37.72 -17.21)"/><path class="cls-6" d="M105.55,182.07a87.33,87.33,0,1,1,174.66,0" transform="translate(-37.72 -17.21)"/><line class="cls-6" x1="43.57" y1="134.13" x2="7.99" y2="134.13"/><line class="cls-6" x1="156.78" y1="43.57" x2="156.78" y2="7.99"/><line class="cls-6" x1="302.33" y1="134.13" x2="266.75" y2="134.13"/><line class="cls-6" x1="50.06" y1="48.49" x2="72.7" y2="71.13"/><line class="cls-6" x1="236.15" y1="70.4" x2="258.79" y2="47.75"/><text class="cls-7" transform="translate(322.41 302.96)">ThermoSecu<tspan class="cls-8" x="538.77" y="0">r</tspan><tspan x="576.36" y="0">e</tspan></text><text class="cls-9" transform="translate(948.95 270.7) scale(0.58)">TM</text><text class="cls-10" transform="translate(342.71 376.65)">b<tspan class="cls-11" x="35.71" y="0">y HouseCom</tspan></text><text class="cls-12" transform="translate(724.62 355.6) scale(0.58)">TM</text></svg>